<?xml version="1.0" encoding="UTF-8" standalone="no"?> <svg width="48" height="48" viewBox="0 0 48 48" fill="none" xmlns="http://www.w3.org/2000/svg">
<path d="M44.629 9.76999L24.506 3.09999C24.0953 2.96398 23.6517 2.96398 23.241 3.09999L3.363 9.76999C2.96585 9.90343 2.62063 10.1582 2.37607 10.4984C2.13151 10.8386 1.99997 11.247 2 11.666V15C2 15.5304 2.21071 16.0391 2.58579 16.4142C2.96086 16.7893 3.46957 17 4 17H5V19C5.00105 19.3495 5.094 19.6926 5.26952 19.9948C5.44504 20.2971 5.69696 20.5478 6 20.722V37H5C4.46957 37 3.96086 37.2107 3.58579 37.5858C3.21071 37.9608 3 38.4696 3 39V42C3 42.5304 3.21071 43.0391 3.58579 43.4142C3.96086 43.7893 4.46957 44 5 44H43C43.5304 44 44.0391 43.7893 44.4142 43.4142C44.7893 43.0391 45 42.5304 45 42V39C45 38.4696 44.7893 37.9608 44.4142 37.5858C44.0391 37.2107 43.5304 37 43 37H42V20.722C42.303 20.5478 42.555 20.2971 42.7305 19.9948C42.906 19.6926 42.9989 19.3495 43 19V17H44C44.5304 17 45.0391 16.7893 45.4142 16.4142C45.7893 16.0391 46 15.5304 46 15V11.668C45.9999 11.2477 45.8674 10.8381 45.6213 10.4974C45.3752 10.1567 45.028 9.90217 44.629 9.76999V9.76999ZM36 20.722V37H32V20.722C32.303 20.5478 32.555 20.2971 32.7305 19.9948C32.906 19.6926 32.9989 19.3495 33 19V17H35V19C35.0011 19.3495 35.094 19.6926 35.2695 19.9948C35.445 20.2971 35.697 20.5478 36 20.722V20.722ZM28 21H30V37H28V21ZM31 19H27V17H31V19ZM26 20.722V37H22V20.722C22.303 20.5478 22.555 20.2971 22.7305 19.9948C22.906 19.6926 22.9989 19.3495 23 19V17H25V19C25.0011 19.3495 25.094 19.6926 25.2695 19.9948C25.445 20.2971 25.697 20.5478 26 20.722ZM18 21H20V37H18V21ZM21 19H17V17H21V19ZM16 20.722V37H12V20.722C12.303 20.5478 12.555 20.2971 12.7305 19.9948C12.906 19.6926 12.9989 19.3495 13 19V17H15V19C15.0011 19.3495 15.094 19.6926 15.2695 19.9948C15.445 20.2971 15.697 20.5478 16 20.722ZM11 19H7V17H11V19ZM8 21H10V37H8V21ZM43 39V42H5V39H43ZM38 37V21H40V37H38ZM41 19H37V17H41V19ZM4 15V11.666L23.877 4.99999L44 11.668V15H4Z" fill="black"/>
</svg>
