<?xml version="1.0" encoding="UTF-8" standalone="no"?> <svg width="512" height="512" viewBox="0 0 512 512" fill="none" xmlns="http://www.w3.org/2000/svg">
<path d="M212.161 209.137L219.327 212.72L220.434 209.401C222.553 203.053 222.814 196.232 221.188 189.74L218.324 178.282C214.243 174.798 211.445 170.049 210.376 164.791C209.307 159.533 210.028 154.068 212.424 149.267L216.847 140.422C217.312 139.474 217.96 138.627 218.753 137.931C219.547 137.235 220.471 136.702 221.471 136.364C222.471 136.027 223.529 135.89 224.582 135.963C225.635 136.036 226.664 136.317 227.608 136.789C228.552 137.261 229.394 137.916 230.084 138.715C230.774 139.514 231.3 140.441 231.629 141.444C231.959 142.447 232.087 143.506 232.006 144.558C231.925 145.611 231.637 146.637 231.157 147.578L226.735 156.422C226.183 157.534 225.895 158.758 225.895 160C225.895 161.242 226.183 162.466 226.735 163.578C227.395 164.91 228.416 166.03 229.68 166.812C230.945 167.593 232.403 168.005 233.889 168H240C242.122 168 244.157 168.843 245.657 170.343C247.157 171.843 248 173.878 248 176C248 178.122 247.157 180.157 245.657 181.657C244.157 183.157 242.122 184 240 184H236.246L236.711 185.859C239.076 195.302 238.695 205.225 235.611 214.459L231.588 226.528L231.388 227.128C229.997 231.311 229.032 235.623 228.507 240H247.207C254.364 240.007 261.34 237.753 267.138 233.558C272.937 229.363 277.261 223.443 279.493 216.643C275.074 206.362 273.813 194.999 275.871 184H272C269.878 184 267.844 183.157 266.343 181.657C264.843 180.157 264 178.122 264 176C264 173.878 264.843 171.843 266.343 170.343C267.844 168.843 269.878 168 272 168H279.742C280.802 168 281.839 167.685 282.721 167.096C283.602 166.507 284.289 165.669 284.695 164.69C285.101 163.71 285.207 162.632 285 161.592C284.793 160.552 284.283 159.597 283.533 158.847L274.343 149.657C272.843 148.157 272 146.122 272 144C272 141.878 272.843 139.843 274.343 138.343C275.843 136.843 277.878 136 280 136C282.122 136 284.157 136.843 285.657 138.343L294.847 147.533C296.938 149.629 298.571 152.135 299.643 154.894C300.715 157.653 301.204 160.605 301.077 163.562C300.951 166.519 300.212 169.418 298.908 172.076C297.603 174.733 295.762 177.091 293.5 179L292.1 184.588C289.869 193.521 290.757 202.947 294.618 211.306L301.656 218.344L304 220.686L309.657 215.03C310.402 214.289 310.993 213.407 311.395 212.436C311.797 211.465 312.003 210.424 312 209.373V133.117C311.996 131.269 311.354 129.478 310.182 128.049C309.01 126.619 307.381 125.639 305.569 125.272L278.431 119.845C277.048 119.568 275.763 118.931 274.706 117.998C273.649 117.064 272.857 115.868 272.411 114.53L266.074 95.519C262.87 95.0166 259.745 94.1038 256.774 92.803C255.105 96.7187 252.329 100.062 248.786 102.422L247.997 102.948V120C247.997 121.894 247.325 123.726 246.101 125.171C244.877 126.616 243.18 127.58 241.312 127.891L206.682 133.663C204.813 133.97 203.114 134.933 201.889 136.379C200.665 137.825 199.995 139.659 200 141.554V189.459C199.986 193.548 201.118 197.558 203.268 201.036C205.417 204.514 208.498 207.321 212.161 209.137V209.137Z" fill="black"/>
<path d="M233.019 93.706L235.519 92.041L235.545 92.023L239.917 89.109C241.24 88.225 242.158 86.8525 242.47 85.2926C242.782 83.7326 242.462 82.1126 241.581 80.788L240.475 79.129L234.529 70.21L216 60.944V80C217.051 79.9999 218.091 80.2068 219.062 80.6088C220.032 81.0109 220.914 81.6001 221.657 82.343L233.019 93.706Z" fill="black"/>
<path d="M246.656 59.562L253.781 70.249C256.874 74.9041 261.634 78.1966 267.081 79.449C270.32 71.3934 271.989 62.7932 272 54.111C271.993 48.2488 269.662 42.6287 265.517 38.4835C261.371 34.3383 255.751 32.0066 249.889 32H232C228.561 32.004 225.215 33.1139 222.456 35.1656C219.696 37.2174 217.67 40.1022 216.676 43.394L243.576 56.845C244.822 57.467 245.884 58.4036 246.656 59.562V59.562Z" fill="black"/>
<path d="M232.648 413.885L232.516 416H291.75C287.739 405.505 285.107 394.533 283.921 383.36C269.491 397.44 251.929 407.899 232.675 413.879L232.648 413.885Z" fill="black"/>
<path d="M296 76C296.002 74.1841 295.431 72.414 294.369 70.9409C293.307 69.4678 291.808 68.3667 290.085 67.794L287.022 66.773C286.017 73.3164 284.245 79.7187 281.743 85.848L290.467 84.068C292.097 83.4404 293.498 82.3334 294.486 80.893C295.474 79.4526 296.002 77.7466 296 76Z" fill="black"/>
<path d="M328 464H200V480H328V464Z" fill="black"/>
<path d="M312 432H216V448H312V432Z" fill="black"/>
<path d="M286.5 340.373C271.807 353.14 254.379 362.362 235.558 367.328L233.728 396.62C248.723 391.048 262.344 382.318 273.668 371.02L283.452 361.235C283.9 354.21 284.92 347.233 286.5 340.373V340.373Z" fill="black"/>
<path d="M300.972 248.417C297.504 262.135 291.106 274.939 282.219 285.949C273.333 296.959 262.167 305.915 249.49 312.2L238.583 317.654C238.537 319.142 236.617 350.375 236.617 350.375C253.61 345.002 269.062 335.62 281.667 323.021L298.054 306.633C304.81 287.953 305.827 267.679 300.972 248.417Z" fill="black"/>
<path d="M247.208 256H228.508C229.033 260.376 229.999 264.689 231.391 268.871L231.472 269.116C234.82 279.145 237.017 289.521 238.021 300.046L242.335 297.889C254.241 291.988 264.536 283.286 272.336 272.529C280.136 261.772 285.208 249.282 287.116 236.132C282.459 242.31 276.429 247.321 269.503 250.769C262.578 254.217 254.945 256.008 247.208 256V256Z" fill="black"/>
</svg>
