<?xml version='1.0' encoding='iso-8859-1'?>
<svg version="1.1" xmlns="http://www.w3.org/2000/svg" viewBox="0 0 280.43 280.43" xmlns:xlink="http://www.w3.org/1999/xlink" enable-background="new 0 0 280.43 280.43">
  <g>
    <g>
      <g>
        <path d="m140.215,46.268c-18.959,0-34.385,15.426-34.385,34.385s15.421,34.385 34.385,34.385 34.385-15.426 34.385-34.385-15.426-34.385-34.385-34.385zm0,58.734c-13.424,0-24.349-10.925-24.349-24.349s10.925-24.349 24.349-24.349 24.349,10.925 24.349,24.349-10.925,24.349-24.349,24.349z"/>
        <path d="m200.885,25.126c-16.203-16.204-37.742-25.126-60.66-25.126s-44.462,8.922-60.671,25.126c-21.538,21.539-30.029,53.264-22.16,82.807 2.394,8.993 70.531,153.207 78.295,169.622 0.833,1.756 2.599,2.875 4.536,2.875 1.937,0 3.708-1.119 4.536-2.875 7.758-16.415 75.881-160.629 78.28-169.612 7.859-29.548-0.627-61.283-22.156-82.817zm12.456,80.227c-1.792,6.343-43.117,94.755-73.116,158.311-30.009-63.561-71.344-151.978-73.131-158.311-6.955-26.095 0.542-54.117 19.556-73.126 14.312-14.307 33.336-22.186 53.575-22.186 20.234,0 39.253,7.879 53.565,22.186 19.004,19.009 26.496,47.031 19.551,73.126z"/>
      </g>
    </g>
  </g>
</svg>
